<svg width="48" height="48" viewBox="0 0 48 48" xmlns="http://www.w3.org/2000/svg" xmlns:xlink="http://www.w3.org/1999/xlink">
    <path id="Ellipse-copy" fill="#1e1e1e" fill-rule="evenodd" stroke="none" d="M 48 24 C 48 10.745167 37.254833 0 24 0 C 10.745166 0 0 10.745167 0 24 C 0 37.254833 10.745166 48 24 48 C 37.254833 48 48 37.254833 48 24 Z"/>
    <linearGradient id="linearGradient1" x1="13.717639" y1="30.402594" x2="34.061226" y2="17.258619" gradientUnits="userSpaceOnUse">
        <stop offset="0" stop-color="#ffa800" stop-opacity="1"/>
        <stop offset="1" stop-color="#ffcc01" stop-opacity="1"/>
    </linearGradient>
    <path id="CID-copy" fill="url(#linearGradient1)" fill-rule="evenodd" stroke="none" d="M 16.321772 28.004993 C 14.310787 28.004993 13.490516 28.825262 13.490516 30.703945 L 13.490516 35.413879 C 13.490516 41.208687 17.433102 44.701447 24.021717 44.701447 C 30.398651 44.701447 34.103096 41.261608 34.103096 35.413879 L 34.103096 30.703945 C 34.103096 28.825262 33.282825 28.004993 31.245386 28.004993 Z M 30.954319 30.518723 C 31.509987 30.518723 31.827511 30.889166 31.827511 31.391911 L 31.827511 35.360958 C 31.827511 39.726906 29.049179 42.081875 23.995258 42.081875 C 18.835499 42.081875 15.792563 39.568146 15.792563 35.281578 L 15.792563 31.365452 C 15.792563 30.836246 16.083626 30.518723 16.692213 30.518723 Z M 14.416628 22.183729 C 13.702198 22.183729 13.331755 22.712929 13.331755 23.427359 C 13.331755 24.168249 13.702198 24.723917 14.416628 24.723917 L 33.176987 24.723917 C 33.917873 24.723917 34.261856 24.168249 34.261856 23.427359 C 34.261856 22.712929 33.917873 22.183729 33.176987 22.183729 Z M 34.5 12.128807 C 34.5 6.625069 30.239891 3 23.810038 3 C 17.22142 3 13.067151 6.625069 13.067151 12.31403 C 13.067151 17.023964 16.030706 19.24663 18.650276 20.172741 C 18.809038 20.22566 18.941339 20.252125 19.100103 20.252125 C 19.655769 20.252125 20.052673 19.775837 20.158512 19.326012 C 20.211435 19.140789 20.237896 18.955564 20.237896 18.796806 C 20.237896 18.294058 19.999754 17.817772 19.417625 17.606091 C 17.300802 16.918121 15.395658 15.409885 15.395658 12.234653 C 15.395658 8.265606 18.676739 5.646034 23.783577 5.646034 C 28.996256 5.646034 32.197952 8.265606 32.197952 12.234653 C 32.197952 15.251125 30.636791 16.574141 28.731655 17.367949 C 28.228909 17.606091 28.043686 18.029459 28.043686 18.479284 C 28.043686 18.690966 28.070145 18.902647 28.149529 19.11433 C 28.281826 19.511232 28.652271 19.934595 29.207939 19.934595 C 29.366701 19.934595 29.551922 19.908142 29.737146 19.82876 C 32.065651 18.876184 34.5 16.785822 34.5 12.128807 Z"/>
</svg>
